<svg width="255" height="52" viewBox="0 0 255 52" fill="none" xmlns="http://www.w3.org/2000/svg">
<path d="M0 8.00001C0 3.58173 3.58172 0 8 0H31.8264C42.8721 0 51.8264 8.9543 51.8264 20V43.0643C51.8264 47.4825 48.2447 51.0643 43.8264 51.0643H8C3.58172 51.0643 0 47.4825 0 43.0643V8.00001Z" fill="#0094FF"/>
<path d="M16.0268 9.67076C16.2014 9.34745 16.5393 9.14594 16.9067 9.14594H37.9553C38.7125 9.14594 39.195 9.95484 38.8352 10.6211L35.7994 16.2426C35.6248 16.566 35.2869 16.7675 34.9195 16.7675H13.8709C13.1137 16.7675 12.6312 15.9586 12.991 15.2923L16.0268 9.67076Z" fill="white"/>
<path d="M17.5548 36.0947C17.1754 36.1456 16.8001 35.9754 16.5884 35.6564L6.21899 20.0255C5.81079 19.4102 6.18737 18.5799 6.91922 18.4816L13.1135 17.6499C13.493 17.5989 13.8682 17.7691 14.0799 18.0882L24.4493 33.719C24.8575 34.3344 24.481 35.1647 23.7491 35.263L17.5548 36.0947Z" fill="white"/>
<path d="M23.5093 39.1402C23.3012 38.78 23.3379 38.3287 23.6013 38.0068L32.5811 27.0327C33.0239 26.4915 33.8712 26.5603 34.2209 27.1658L37.2264 32.3698C37.4344 32.7299 37.3978 33.1813 37.1344 33.5032L28.1546 44.4773C27.7118 45.0185 26.8644 44.9497 26.5147 44.3441L23.5093 39.1402Z" fill="white"/>
<circle cx="26.2939" cy="23.2457" r="3.42969" fill="#B2FF34"/>
<path d="M80.2651 35.7434C79.8404 36.0909 79.3191 36.3515 78.7012 36.5253C78.1027 36.6991 77.4655 36.786 76.7897 36.786C75.0906 36.786 73.7777 36.3419 72.8509 35.4537C71.9241 34.5656 71.4608 33.2719 71.4608 31.5728V24.1297H68.9121V21.2335H71.4608V17.7001H75.081V21.2335H79.2225V24.1297H75.081V31.486C75.081 32.239 75.2644 32.8182 75.6313 33.2237C75.9981 33.6098 76.5291 33.8029 77.2242 33.8029C78.0351 33.8029 78.7109 33.5905 79.2515 33.1657L80.2651 35.7434Z" fill="#1C2435"/>
<path d="M88.2826 20.9439C90.5609 20.9439 92.2986 21.4941 93.4957 22.5947C94.7121 23.6759 95.3203 25.3171 95.3203 27.5182V36.5832H91.9028V34.7007C91.4587 35.3765 90.8216 35.8978 89.9913 36.2647C89.1804 36.6122 88.1957 36.786 87.0372 36.786C85.8788 36.786 84.8651 36.5929 83.9962 36.2067C83.1274 35.8013 82.4516 35.251 81.9689 34.5559C81.5055 33.8415 81.2738 33.0402 81.2738 32.1521C81.2738 30.7619 81.7855 29.6517 82.8088 28.8215C83.8514 27.9719 85.483 27.5472 87.7034 27.5472H91.7001V27.3155C91.7001 26.2342 91.3719 25.404 90.7154 24.8247C90.0782 24.2455 89.1225 23.9559 87.8482 23.9559C86.9793 23.9559 86.1201 24.091 85.2706 24.3614C84.4403 24.6317 83.7356 25.0082 83.1563 25.4909L81.7372 22.8553C82.5482 22.2375 83.5232 21.7644 84.6624 21.4362C85.8015 21.108 87.0083 20.9439 88.2826 20.9439ZM87.7902 34.1504C88.6977 34.1504 89.499 33.9477 90.1941 33.5423C90.9085 33.1175 91.4105 32.5189 91.7001 31.7466V29.951H87.964C85.8788 29.951 84.8361 30.6364 84.8361 32.0073C84.8361 32.6637 85.0968 33.1851 85.6181 33.5712C86.1394 33.9574 86.8635 34.1504 87.7902 34.1504Z" fill="#1C2435"/>
<path d="M99.0976 15.0936H102.718V36.5832H99.0976V15.0936Z" fill="#1C2435"/>
<path d="M121.139 28.9373C121.139 29.1883 121.12 29.5455 121.081 30.0089H108.946C109.159 31.1481 109.709 32.0555 110.597 32.7313C111.505 33.3878 112.625 33.716 113.957 33.716C115.656 33.716 117.056 33.1561 118.156 32.0362L120.097 34.2663C119.402 35.0965 118.523 35.724 117.461 36.1488C116.399 36.5736 115.202 36.786 113.87 36.786C112.171 36.786 110.674 36.4481 109.381 35.7723C108.087 35.0965 107.083 34.1601 106.369 32.963C105.674 31.7466 105.326 30.3758 105.326 28.8504C105.326 27.3444 105.664 25.9929 106.34 24.7958C107.035 23.5794 107.991 22.6333 109.207 21.9575C110.423 21.2817 111.794 20.9439 113.32 20.9439C114.826 20.9439 116.168 21.2817 117.345 21.9575C118.542 22.614 119.469 23.5504 120.126 24.7668C120.801 25.9639 121.139 27.3541 121.139 28.9373ZM113.32 23.84C112.161 23.84 111.176 24.1876 110.366 24.8827C109.574 25.5584 109.091 26.4659 108.917 27.6051H117.693C117.538 26.4852 117.065 25.5777 116.274 24.8827C115.482 24.1876 114.497 23.84 113.32 23.84Z" fill="#1C2435"/>
<path d="M132.523 20.9439C134.473 20.9439 136.037 21.5134 137.215 22.6526C138.393 23.7918 138.982 25.4812 138.982 27.7209V36.5832H135.362V28.1843C135.362 26.8328 135.043 25.8191 134.406 25.1433C133.769 24.4482 132.861 24.1007 131.683 24.1007C130.351 24.1007 129.299 24.5062 128.527 25.3171C127.754 26.1087 127.368 27.2575 127.368 28.7635V36.5832H123.748V21.1176H127.194V23.116C127.793 22.4016 128.546 21.861 129.453 21.4941C130.361 21.1273 131.384 20.9439 132.523 20.9439Z" fill="#1C2435"/>
<path d="M152.002 35.7434C151.577 36.0909 151.056 36.3515 150.438 36.5253C149.84 36.6991 149.203 36.786 148.527 36.786C146.828 36.786 145.515 36.3419 144.588 35.4537C143.661 34.5656 143.198 33.2719 143.198 31.5728V24.1297H140.649V21.2335H143.198V17.7001H146.818V21.2335H150.96V24.1297H146.818V31.486C146.818 32.239 147.001 32.8182 147.368 33.2237C147.735 33.6098 148.266 33.8029 148.961 33.8029C149.772 33.8029 150.448 33.5905 150.989 33.1657L152.002 35.7434Z" fill="#1C2435"/>
<path d="M170.022 20.9439C171.972 20.9439 173.536 21.5134 174.714 22.6526C175.892 23.7918 176.481 25.4812 176.481 27.7209V36.5832H172.86V28.1843C172.86 26.8328 172.542 25.8191 171.905 25.1433C171.267 24.4482 170.36 24.1007 169.182 24.1007C167.85 24.1007 166.798 24.5062 166.025 25.3171C165.253 26.1087 164.867 27.2575 164.867 28.7635V36.5832H161.247V15.0936H164.867V22.9133C165.465 22.2761 166.199 21.7934 167.068 21.4652C167.956 21.1176 168.941 20.9439 170.022 20.9439Z" fill="#1C2435"/>
<path d="M195.178 21.1176V36.5832H191.731V34.6138C191.152 35.3089 190.428 35.8495 189.559 36.2357C188.69 36.6026 187.754 36.786 186.75 36.786C184.684 36.786 183.052 36.2164 181.855 35.0772C180.677 33.9188 180.088 32.21 180.088 29.951V21.1176H183.709V29.4586C183.709 30.8488 184.018 31.8914 184.635 32.5865C185.273 33.2623 186.17 33.6002 187.329 33.6002C188.622 33.6002 189.646 33.2044 190.399 32.4127C191.171 31.6018 191.557 30.4433 191.557 28.9373V21.1176H195.178Z" fill="#1C2435"/>
<path d="M207.824 20.9439C209.774 20.9439 211.338 21.5134 212.516 22.6526C213.694 23.7918 214.283 25.4812 214.283 27.7209V36.5832H210.662V28.1843C210.662 26.8328 210.344 25.8191 209.707 25.1433C209.069 24.4482 208.162 24.1007 206.984 24.1007C205.652 24.1007 204.6 24.5062 203.827 25.3171C203.055 26.1087 202.669 27.2575 202.669 28.7635V36.5832H199.049V21.1176H202.495V23.116C203.094 22.4016 203.847 21.861 204.754 21.4941C205.662 21.1273 206.685 20.9439 207.824 20.9439Z" fill="#1C2435"/>
<path d="M227.303 35.7434C226.878 36.0909 226.357 36.3515 225.739 36.5253C225.14 36.6991 224.503 36.786 223.828 36.786C222.128 36.786 220.816 36.3419 219.889 35.4537C218.962 34.5656 218.499 33.2719 218.499 31.5728V24.1297H215.95V21.2335H218.499V17.7001H222.119V21.2335H226.26V24.1297H222.119V31.486C222.119 32.239 222.302 32.8182 222.669 33.2237C223.036 33.6098 223.567 33.8029 224.262 33.8029C225.073 33.8029 225.749 33.5905 226.289 33.1657L227.303 35.7434Z" fill="#1C2435"/>
<path d="M243.442 28.9373C243.442 29.1883 243.423 29.5455 243.384 30.0089H231.249C231.461 31.1481 232.012 32.0555 232.9 32.7313C233.807 33.3878 234.927 33.716 236.259 33.716C237.959 33.716 239.358 33.1561 240.459 32.0362L242.399 34.2663C241.704 35.0965 240.826 35.724 239.764 36.1488C238.702 36.5736 237.505 36.786 236.173 36.786C234.473 36.786 232.977 36.4481 231.683 35.7723C230.39 35.0965 229.386 34.1601 228.671 32.963C227.976 31.7466 227.629 30.3758 227.629 28.8504C227.629 27.3444 227.967 25.9929 228.642 24.7958C229.338 23.5794 230.293 22.6333 231.51 21.9575C232.726 21.2817 234.097 20.9439 235.622 20.9439C237.128 20.9439 238.47 21.2817 239.648 21.9575C240.845 22.614 241.772 23.5504 242.428 24.7668C243.104 25.9639 243.442 27.3541 243.442 28.9373ZM235.622 23.84C234.464 23.84 233.479 24.1876 232.668 24.8827C231.877 25.5584 231.394 26.4659 231.22 27.6051H239.995C239.841 26.4852 239.368 25.5777 238.576 24.8827C237.785 24.1876 236.8 23.84 235.622 23.84Z" fill="#1C2435"/>
<path d="M249.497 23.3766C250.54 21.7548 252.374 20.9439 255 20.9439V24.3903C254.691 24.3324 254.411 24.3034 254.16 24.3034C252.75 24.3034 251.65 24.7185 250.858 25.5488C250.067 26.3597 249.671 27.5375 249.671 29.0821V36.5832H246.051V21.1176H249.497V23.3766Z" fill="#1C2435"/>
</svg>
