<svg width="255" height="52" viewBox="0 0 255 52" fill="none" xmlns="http://www.w3.org/2000/svg">
<path d="M0 8.00001C0 3.58173 3.58172 0 8 0H31.8264C42.8721 0 51.8264 8.9543 51.8264 20V43.0643C51.8264 47.4825 48.2447 51.0643 43.8264 51.0643H8C3.58172 51.0643 0 47.4825 0 43.0643V8.00001Z" fill="#0094FF"/>
<path d="M16.0268 9.67082C16.2014 9.34751 16.5393 9.146 16.9067 9.146H37.9553C38.7125 9.146 39.195 9.9549 38.8352 10.6212L35.7994 16.2427C35.6248 16.566 35.2869 16.7675 34.9195 16.7675H13.8709C13.1137 16.7675 12.6312 15.9586 12.991 15.2924L16.0268 9.67082Z" fill="white"/>
<path d="M17.5548 36.0947C17.1754 36.1457 16.8001 35.9755 16.5884 35.6565L6.21899 20.0256C5.81079 19.4102 6.18737 18.5799 6.91922 18.4817L13.1135 17.6499C13.493 17.599 13.8682 17.7692 14.0799 18.0882L24.4493 33.7191C24.8575 34.3344 24.481 35.1647 23.7491 35.263L17.5548 36.0947Z" fill="white"/>
<path d="M23.5093 39.1402C23.3012 38.78 23.3379 38.3287 23.6013 38.0068L32.5811 27.0327C33.0239 26.4915 33.8712 26.5603 34.2209 27.1658L37.2264 32.3698C37.4344 32.7299 37.3978 33.1813 37.1344 33.5032L28.1546 44.4773C27.7118 45.0185 26.8644 44.9497 26.5147 44.3441L23.5093 39.1402Z" fill="white"/>
<circle cx="26.2939" cy="23.2456" r="3.42969" fill="#B2FF34"/>
<path d="M80.2651 35.7435C79.8404 36.0911 79.3191 36.3517 78.7012 36.5255C78.1027 36.6993 77.4655 36.7862 76.7897 36.7862C75.0906 36.7862 73.7777 36.3421 72.8509 35.4539C71.9241 34.5658 71.4608 33.2721 71.4608 31.573V24.1298H68.9121V21.2337H71.4608V17.7003H75.081V21.2337H79.2225V24.1298H75.081V31.4861C75.081 32.2392 75.2644 32.8184 75.6313 33.2239C75.9981 33.61 76.5291 33.8031 77.2242 33.8031C78.0351 33.8031 78.7109 33.5907 79.2515 33.1659L80.2651 35.7435Z" fill="white"/>
<path d="M88.2826 20.944C90.5609 20.944 92.2986 21.4943 93.4957 22.5949C94.7121 23.6761 95.3203 25.3173 95.3203 27.5184V36.5834H91.9028V34.7009C91.4587 35.3767 90.8216 35.898 89.9913 36.2648C89.1804 36.6124 88.1957 36.7862 87.0372 36.7862C85.8788 36.7862 84.8651 36.5931 83.9962 36.2069C83.1274 35.8015 82.4516 35.2512 81.9689 34.5561C81.5055 33.8417 81.2738 33.0404 81.2738 32.1523C81.2738 30.7621 81.7855 29.6519 82.8088 28.8217C83.8514 27.9721 85.483 27.5473 87.7034 27.5473H91.7001V27.3156C91.7001 26.2344 91.3719 25.4042 90.7154 24.8249C90.0782 24.2457 89.1225 23.9561 87.8482 23.9561C86.9793 23.9561 86.1201 24.0912 85.2706 24.3615C84.4403 24.6318 83.7356 25.0083 83.1563 25.491L81.7372 22.8555C82.5482 22.2377 83.5232 21.7646 84.6624 21.4364C85.8015 21.1082 87.0083 20.944 88.2826 20.944ZM87.7902 34.1506C88.6977 34.1506 89.499 33.9479 90.1941 33.5424C90.9085 33.1177 91.4105 32.5191 91.7001 31.7468V29.9512H87.964C85.8788 29.9512 84.8361 30.6366 84.8361 32.0075C84.8361 32.6639 85.0968 33.1852 85.6181 33.5714C86.1394 33.9576 86.8635 34.1506 87.7902 34.1506Z" fill="white"/>
<path d="M99.0976 15.0938H102.718V36.5834H99.0976V15.0938Z" fill="white"/>
<path d="M121.139 28.9375C121.139 29.1885 121.12 29.5457 121.081 30.0091H108.946C109.159 31.1483 109.709 32.0557 110.597 32.7315C111.505 33.388 112.625 33.7162 113.957 33.7162C115.656 33.7162 117.056 33.1563 118.156 32.0364L120.097 34.2665C119.402 35.0967 118.523 35.7242 117.461 36.149C116.399 36.5738 115.202 36.7862 113.87 36.7862C112.171 36.7862 110.674 36.4483 109.381 35.7725C108.087 35.0967 107.083 34.1603 106.369 32.9632C105.674 31.7468 105.326 30.3759 105.326 28.8506C105.326 27.3446 105.664 25.9931 106.34 24.796C107.035 23.5796 107.991 22.6335 109.207 21.9577C110.423 21.2819 111.794 20.944 113.32 20.944C114.826 20.944 116.168 21.2819 117.345 21.9577C118.542 22.6142 119.469 23.5506 120.126 24.767C120.801 25.9641 121.139 27.3543 121.139 28.9375ZM113.32 23.8402C112.161 23.8402 111.176 24.1878 110.366 24.8828C109.574 25.5586 109.091 26.4661 108.917 27.6053H117.693C117.538 26.4854 117.065 25.5779 116.274 24.8828C115.482 24.1878 114.497 23.8402 113.32 23.8402Z" fill="white"/>
<path d="M132.523 20.944C134.473 20.944 136.037 21.5136 137.215 22.6528C138.393 23.792 138.982 25.4814 138.982 27.7211V36.5834H135.362V28.1845C135.362 26.8329 135.043 25.8193 134.406 25.1435C133.769 24.4484 132.861 24.1009 131.683 24.1009C130.351 24.1009 129.299 24.5063 128.527 25.3173C127.754 26.1089 127.368 27.2577 127.368 28.7637V36.5834H123.748V21.1178H127.194V23.1162C127.793 22.4018 128.546 21.8612 129.453 21.4943C130.361 21.1275 131.384 20.944 132.523 20.944Z" fill="white"/>
<path d="M152.002 35.7435C151.577 36.0911 151.056 36.3517 150.438 36.5255C149.84 36.6993 149.203 36.7862 148.527 36.7862C146.828 36.7862 145.515 36.3421 144.588 35.4539C143.661 34.5658 143.198 33.2721 143.198 31.573V24.1298H140.649V21.2337H143.198V17.7003H146.818V21.2337H150.96V24.1298H146.818V31.4861C146.818 32.2392 147.001 32.8184 147.368 33.2239C147.735 33.61 148.266 33.8031 148.961 33.8031C149.772 33.8031 150.448 33.5907 150.989 33.1659L152.002 35.7435Z" fill="white"/>
<path d="M170.022 20.944C171.972 20.944 173.536 21.5136 174.714 22.6528C175.892 23.792 176.481 25.4814 176.481 27.7211V36.5834H172.86V28.1845C172.86 26.8329 172.542 25.8193 171.905 25.1435C171.267 24.4484 170.36 24.1009 169.182 24.1009C167.85 24.1009 166.798 24.5063 166.025 25.3173C165.253 26.1089 164.867 27.2577 164.867 28.7637V36.5834H161.247V15.0938H164.867V22.9134C165.465 22.2763 166.199 21.7936 167.068 21.4654C167.956 21.1178 168.941 20.944 170.022 20.944Z" fill="white"/>
<path d="M195.178 21.1178V36.5834H191.731V34.614C191.152 35.3091 190.428 35.8497 189.559 36.2359C188.69 36.6027 187.754 36.7862 186.75 36.7862C184.684 36.7862 183.052 36.2166 181.855 35.0774C180.677 33.9189 180.088 32.2102 180.088 29.9512V21.1178H183.709V29.4588C183.709 30.849 184.018 31.8916 184.635 32.5867C185.273 33.2625 186.17 33.6004 187.329 33.6004C188.622 33.6004 189.646 33.2045 190.399 32.4129C191.171 31.602 191.557 30.4435 191.557 28.9375V21.1178H195.178Z" fill="white"/>
<path d="M207.824 20.944C209.774 20.944 211.338 21.5136 212.516 22.6528C213.694 23.792 214.283 25.4814 214.283 27.7211V36.5834H210.662V28.1845C210.662 26.8329 210.344 25.8193 209.707 25.1435C209.069 24.4484 208.162 24.1009 206.984 24.1009C205.652 24.1009 204.6 24.5063 203.827 25.3173C203.055 26.1089 202.669 27.2577 202.669 28.7637V36.5834H199.049V21.1178H202.495V23.1162C203.094 22.4018 203.847 21.8612 204.754 21.4943C205.662 21.1275 206.685 20.944 207.824 20.944Z" fill="white"/>
<path d="M227.303 35.7435C226.878 36.0911 226.357 36.3517 225.739 36.5255C225.14 36.6993 224.503 36.7862 223.828 36.7862C222.128 36.7862 220.816 36.3421 219.889 35.4539C218.962 34.5658 218.499 33.2721 218.499 31.573V24.1298H215.95V21.2337H218.499V17.7003H222.119V21.2337H226.26V24.1298H222.119V31.4861C222.119 32.2392 222.302 32.8184 222.669 33.2239C223.036 33.61 223.567 33.8031 224.262 33.8031C225.073 33.8031 225.749 33.5907 226.289 33.1659L227.303 35.7435Z" fill="white"/>
<path d="M243.442 28.9375C243.442 29.1885 243.423 29.5457 243.384 30.0091H231.249C231.461 31.1483 232.012 32.0557 232.9 32.7315C233.807 33.388 234.927 33.7162 236.259 33.7162C237.959 33.7162 239.358 33.1563 240.459 32.0364L242.399 34.2665C241.704 35.0967 240.826 35.7242 239.764 36.149C238.702 36.5738 237.505 36.7862 236.173 36.7862C234.473 36.7862 232.977 36.4483 231.683 35.7725C230.39 35.0967 229.386 34.1603 228.671 32.9632C227.976 31.7468 227.629 30.3759 227.629 28.8506C227.629 27.3446 227.967 25.9931 228.642 24.796C229.338 23.5796 230.293 22.6335 231.51 21.9577C232.726 21.2819 234.097 20.944 235.622 20.944C237.128 20.944 238.47 21.2819 239.648 21.9577C240.845 22.6142 241.772 23.5506 242.428 24.767C243.104 25.9641 243.442 27.3543 243.442 28.9375ZM235.622 23.8402C234.464 23.8402 233.479 24.1878 232.668 24.8828C231.877 25.5586 231.394 26.4661 231.22 27.6053H239.995C239.841 26.4854 239.368 25.5779 238.576 24.8828C237.785 24.1878 236.8 23.8402 235.622 23.8402Z" fill="white"/>
<path d="M249.497 23.3768C250.54 21.755 252.374 20.944 255 20.944V24.3905C254.691 24.3326 254.411 24.3036 254.16 24.3036C252.75 24.3036 251.65 24.7187 250.858 25.549C250.067 26.3599 249.671 27.5377 249.671 29.0823V36.5834H246.051V21.1178H249.497V23.3768Z" fill="white"/>
</svg>
