<svg width="54" height="54" viewBox="0 0 54 54" fill="none" xmlns="http://www.w3.org/2000/svg">
<path fill-rule="evenodd" clip-rule="evenodd" d="M15.7524 26.6258C22.231 23.8122 26.5439 21.9427 28.7096 21.0357C34.8736 18.4628 36.1693 18.0185 37.0023 18C37.1874 18 37.5946 18.037 37.8722 18.2591C38.0944 18.4442 38.1499 18.6849 38.1869 18.87C38.2239 19.0551 38.2609 19.4438 38.2239 19.74C37.8907 23.2569 36.4469 31.7902 35.7065 35.7144C35.3919 37.3803 34.781 37.9356 34.1887 37.9911C32.893 38.1022 31.9119 37.1396 30.6717 36.3252C28.7096 35.048 27.6175 34.252 25.711 32.9933C23.5082 31.5495 24.9335 30.7536 26.1922 29.4579C26.5254 29.1247 32.2081 23.9418 32.3191 23.479C32.3377 23.4235 32.3377 23.2014 32.2081 23.0903C32.0785 22.9793 31.8934 23.0163 31.7453 23.0533C31.5417 23.0903 28.432 25.1635 22.3791 29.2543C21.4906 29.8651 20.6947 30.1613 19.9728 30.1428C19.1768 30.1242 17.659 29.6985 16.5113 29.3283C15.1231 28.8841 14.0125 28.6434 14.105 27.866C14.1605 27.4588 14.7158 27.0515 15.7524 26.6258Z" fill="#1C2435"/>
<rect x="0.25" y="0.25" width="53.5" height="53.5" rx="4.75" stroke="#1C2435" stroke-width="0.5"/>
</svg>
