<svg width="25" height="29" viewBox="0 0 25 29" fill="none" xmlns="http://www.w3.org/2000/svg">
<path d="M9.79244 22.6324C10.1559 22.6324 10.5045 22.4881 10.7615 22.231C11.0185 21.974 11.1629 21.6254 11.1629 21.262V13.0392C11.1629 12.6757 11.0185 12.3272 10.7615 12.0702C10.5045 11.8131 10.1559 11.6688 9.79244 11.6688C9.42897 11.6688 9.08039 11.8131 8.82338 12.0702C8.56637 12.3272 8.42198 12.6757 8.42198 13.0392V21.262C8.42198 21.6254 8.56637 21.974 8.82338 22.231C9.08039 22.4881 9.42897 22.6324 9.79244 22.6324ZM23.497 6.18692H18.0152V4.81646C18.0152 3.72605 17.582 2.68031 16.811 1.90927C16.04 1.13824 14.9942 0.705078 13.9038 0.705078H11.1629C10.0725 0.705078 9.02675 1.13824 8.25571 1.90927C7.48468 2.68031 7.05152 3.72605 7.05152 4.81646V6.18692H1.56968C1.20621 6.18692 0.857628 6.33131 0.600617 6.58832C0.343606 6.84533 0.199219 7.19391 0.199219 7.55738C0.199219 7.92085 0.343606 8.26943 0.600617 8.52644C0.857628 8.78345 1.20621 8.92784 1.56968 8.92784H2.94014V24.0029C2.94014 25.0933 3.3733 26.139 4.14433 26.9101C4.91537 27.6811 5.96111 28.1143 7.05152 28.1143H18.0152C19.1056 28.1143 20.1514 27.6811 20.9224 26.9101C21.6934 26.139 22.1266 25.0933 22.1266 24.0029V8.92784H23.497C23.8605 8.92784 24.2091 8.78345 24.4661 8.52644C24.7231 8.26943 24.8675 7.92085 24.8675 7.55738C24.8675 7.19391 24.7231 6.84533 24.4661 6.58832C24.2091 6.33131 23.8605 6.18692 23.497 6.18692ZM9.79244 4.81646C9.79244 4.45299 9.93683 4.10441 10.1938 3.8474C10.4508 3.59039 10.7994 3.446 11.1629 3.446H13.9038C14.2673 3.446 14.6159 3.59039 14.8729 3.8474C15.1299 4.10441 15.2743 4.45299 15.2743 4.81646V6.18692H9.79244V4.81646ZM19.3857 24.0029C19.3857 24.3664 19.2413 24.7149 18.9843 24.972C18.7273 25.229 18.3787 25.3734 18.0152 25.3734H7.05152C6.68805 25.3734 6.33947 25.229 6.08246 24.972C5.82545 24.7149 5.68106 24.3664 5.68106 24.0029V8.92784H19.3857V24.0029ZM15.2743 22.6324C15.6377 22.6324 15.9863 22.4881 16.2433 22.231C16.5004 21.974 16.6447 21.6254 16.6447 21.262V13.0392C16.6447 12.6757 16.5004 12.3272 16.2433 12.0702C15.9863 11.8131 15.6377 11.6688 15.2743 11.6688C14.9108 11.6688 14.5622 11.8131 14.3052 12.0702C14.0482 12.3272 13.9038 12.6757 13.9038 13.0392V21.262C13.9038 21.6254 14.0482 21.974 14.3052 22.231C14.5622 22.4881 14.9108 22.6324 15.2743 22.6324Z" fill="#8B8B8B"/>
</svg>
