<svg width="25" height="25" viewBox="0 0 25 25" fill="none" xmlns="http://www.w3.org/2000/svg">
<path d="M24.7799 7.016C24.7809 6.85818 24.7506 6.70174 24.6909 6.55564C24.6313 6.40954 24.5433 6.27665 24.4322 6.1646L19.3478 1.0802C19.2357 0.969057 19.1029 0.881129 18.9567 0.821454C18.8106 0.761778 18.6542 0.731529 18.4964 0.732442C18.3386 0.731529 18.1821 0.761778 18.036 0.821454C17.8899 0.881129 17.757 0.969057 17.645 1.0802L14.2514 4.4738L1.14465 17.5805C1.03351 17.6926 0.945582 17.8255 0.885907 17.9716C0.826231 18.1177 0.795983 18.2741 0.796895 18.4319V23.5163C0.796895 23.8344 0.923234 24.1394 1.14812 24.3643C1.373 24.5892 1.67801 24.7155 1.99605 24.7155H7.08045C7.24825 24.7246 7.41609 24.6984 7.57309 24.6385C7.73009 24.5786 7.87275 24.4863 7.99181 24.3677L21.0266 11.261L24.4322 7.92736C24.5416 7.81114 24.6308 7.67737 24.696 7.53164C24.7076 7.43605 24.7076 7.33942 24.696 7.24384C24.7016 7.18802 24.7016 7.13178 24.696 7.07596L24.7799 7.016ZM6.5888 22.3172H3.1952V18.9236L15.1028 7.016L18.4964 10.4096L6.5888 22.3172ZM20.1872 8.7188L16.7936 5.3252L18.4964 3.63439L21.878 7.016L20.1872 8.7188Z" fill="#8B8B8B"/>
</svg>
