<svg width="24" height="18" viewBox="0 0 24 18" fill="none" xmlns="http://www.w3.org/2000/svg">
<path d="M23.8587 5.9299C23.7852 5.75467 23.6778 5.59568 23.5427 5.46206L19.0959 1.25197C18.9577 1.12112 18.7951 1.01878 18.6173 0.950778C18.4395 0.88278 18.2501 0.850458 18.0599 0.855661C17.6757 0.866167 17.3113 1.02888 17.0471 1.30799C16.9162 1.4462 16.8139 1.60882 16.7459 1.78658C16.6779 1.96434 16.6456 2.15375 16.6508 2.344C16.6613 2.72822 16.824 3.09253 17.1031 3.35679L19.0297 5.16673L5.19306 5.54509C4.04509 5.57648 2.9566 6.06262 2.16706 6.89656C1.37751 7.7305 0.951585 8.84393 0.982976 9.9919L1.14079 15.7632C1.15125 16.1458 1.3133 16.5087 1.59128 16.7718C1.86926 17.035 2.2404 17.177 2.62306 17.1665C3.00572 17.1561 3.36855 16.994 3.63173 16.716C3.89491 16.4381 4.03689 16.0669 4.02642 15.6843L3.86861 9.91299C3.85814 9.53034 4.00012 9.15919 4.2633 8.88121C4.52648 8.60323 4.88931 8.44119 5.27197 8.43072L19.1086 8.05237L17.2838 9.96489C17.1522 10.1027 17.0493 10.2652 16.9808 10.4431C16.9124 10.6209 16.8798 10.8105 16.885 11.001C16.8902 11.1914 16.9331 11.379 17.0112 11.5528C17.0892 11.7266 17.2009 11.8833 17.3398 12.0137C17.4777 12.1453 17.6402 12.2482 17.818 12.3167C17.9958 12.3851 18.1854 12.4177 18.3759 12.4125C18.5664 12.4072 18.7539 12.3644 18.9277 12.2863C19.1016 12.2083 19.2582 12.0966 19.3886 11.9577L23.5987 7.51086C23.7263 7.37005 23.8249 7.20543 23.8887 7.02644C24.0234 6.67123 24.0126 6.27722 23.8587 5.9299Z" fill="#8B8B8B"/>
</svg>
