<svg width="28" height="29" viewBox="0 0 28 29" fill="none" xmlns="http://www.w3.org/2000/svg">
<g clip-path="url(#clip0_1_9457)">
<path d="M14 28.75C21.732 28.75 28 22.482 28 14.75C28 7.01801 21.732 0.75 14 0.75C6.26801 0.75 0 7.01801 0 14.75C0 22.482 6.26801 28.75 14 28.75Z" fill="#C13584"/>
<path fill-rule="evenodd" clip-rule="evenodd" d="M10.8435 7.40881C9.91543 7.47746 9.37996 7.61687 8.69978 7.96686C8.1487 8.25045 7.49527 8.90381 7.21172 9.45497C6.95832 9.94733 6.8228 10.358 6.71551 10.958C6.64223 11.368 6.63184 11.8397 6.63184 14.7526C6.63184 17.6655 6.64223 18.1372 6.71551 18.5472C6.9048 19.6061 7.21872 20.2486 7.86008 20.8899C8.50135 21.5313 9.14395 21.8452 10.2029 22.0345C10.6128 22.1078 11.0846 22.1182 13.9975 22.1182C16.9103 22.1182 17.3821 22.1078 17.792 22.0345C18.8509 21.8452 19.4935 21.5313 20.1348 20.8899C20.7762 20.2486 21.0901 19.6061 21.2794 18.5472C21.3526 18.1372 21.3631 17.6655 21.3631 14.7526C21.3631 11.8397 21.3526 11.368 21.2794 10.958C21.0901 9.89914 20.7762 9.25654 20.1348 8.61519C19.4984 7.97874 18.8485 7.65925 17.8167 7.47549C17.4481 7.40985 16.8654 7.39427 14.3671 7.38348C12.7137 7.37634 11.1281 7.38772 10.8435 7.40881ZM16.812 8.73927C18.0766 8.8134 18.6528 9.01021 19.1963 9.5537C19.7398 10.0972 19.9366 10.6734 20.0108 11.9381C20.069 12.9322 20.069 16.5729 20.0108 17.5672C19.9366 18.8318 19.7398 19.4079 19.1963 19.9515C18.6528 20.4949 18.0766 20.6917 16.812 20.7659C15.8178 20.8241 12.1771 20.8241 11.1829 20.7659C9.91823 20.6917 9.34209 20.4949 8.79852 19.9515C8.2551 19.4079 8.05829 18.8318 7.98416 17.5672C7.92588 16.5729 7.92588 12.9322 7.98416 11.9381C8.05829 10.6734 8.2551 10.0972 8.79852 9.5537C9.32426 9.02797 9.93753 8.80868 11.0653 8.7431C11.9946 8.68909 15.9114 8.68652 16.812 8.73927ZM17.5704 9.99787C17.3456 10.1195 17.2447 10.2245 17.1455 10.4406C17.0306 10.6909 17.0306 10.9295 17.1455 11.1798C17.2532 11.4142 17.3631 11.5193 17.6074 11.6214C17.8467 11.7213 18.067 11.7156 18.3152 11.6029C18.6172 11.4658 18.7927 11.2073 18.8148 10.8669C18.8363 10.5359 18.7386 10.3224 18.4637 10.0999C18.2395 9.91844 17.8086 9.86922 17.5704 9.99787ZM13.3112 11.0085C12.1005 11.2634 11.1464 11.9854 10.6083 13.0541C10.3113 13.644 10.2275 14.0176 10.2275 14.7526C10.2275 15.3129 10.2458 15.4759 10.343 15.7858C10.7601 17.1141 11.6359 17.9899 12.9643 18.407C13.2742 18.5043 13.4371 18.5225 13.9975 18.5225C14.5578 18.5225 14.7207 18.5043 15.0306 18.407C16.359 17.9899 17.2347 17.1141 17.6519 15.7858C17.7492 15.4759 17.7674 15.3129 17.7674 14.7526C17.7674 14.1922 17.7492 14.0293 17.6519 13.7194C17.2379 12.401 16.364 11.521 15.057 11.1062C14.6677 10.9827 13.6928 10.9281 13.3112 11.0085ZM14.8127 12.441C15.5472 12.7147 16.0251 13.1913 16.3149 13.9395C16.4796 14.3643 16.4794 15.1417 16.3145 15.5657C16.0238 16.3136 15.5567 16.7809 14.8106 17.07C14.5684 17.164 14.4214 17.1846 13.9975 17.1846C13.5736 17.1846 13.4266 17.164 13.1843 17.07C12.4382 16.7809 11.971 16.3136 11.6803 15.5657C11.586 15.323 11.5654 15.1772 11.5654 14.7526C11.5654 14.1985 11.6519 13.8769 11.9165 13.4467C12.2576 12.892 12.9282 12.4434 13.6032 12.3183C13.8753 12.2679 14.5252 12.3339 14.8127 12.441Z" fill="white"/>
</g>
<defs>
<clipPath id="clip0_1_9457">
<rect width="28" height="28" fill="white" transform="translate(0 0.75)"/>
</clipPath>
</defs>
</svg>
