<svg width="29" height="29" viewBox="0 0 29 29" fill="none" xmlns="http://www.w3.org/2000/svg">
<g clip-path="url(#clip0_1_9505)">
<path d="M14.2373 28.75C21.9693 28.75 28.2373 22.482 28.2373 14.75C28.2373 7.01801 21.9693 0.75 14.2373 0.75C6.50532 0.75 0.237305 7.01801 0.237305 14.75C0.237305 22.482 6.50532 28.75 14.2373 28.75Z" fill="#1DA1F2"/>
<path d="M10.8426 22.058C17.748 22.058 21.5241 16.4353 21.5241 11.5596C21.5241 11.4 21.5207 11.241 21.5134 11.0827C22.2465 10.5619 22.8837 9.91191 23.3861 9.17205C22.7135 9.4659 21.9896 9.66375 21.2302 9.7529C22.0054 9.29614 22.6004 8.57351 22.8811 7.71202C22.1558 8.13465 21.3524 8.44184 20.4972 8.60763C19.8121 7.89043 18.8368 7.44189 17.7568 7.44189C15.6836 7.44189 14.0024 9.09431 14.0024 11.1312C14.0024 11.4208 14.0353 11.7024 14.0997 11.9726C10.9794 11.8183 8.21271 10.35 6.36129 8.1174C6.03887 8.66267 5.85295 9.29614 5.85295 9.97197C5.85295 11.2522 6.51572 12.3823 7.5236 13.0434C6.90768 13.0247 6.32908 12.8585 5.82331 12.5819C5.82276 12.5974 5.82276 12.6125 5.82276 12.629C5.82276 14.416 7.11682 15.908 8.83468 16.2461C8.51924 16.3306 8.18729 16.3759 7.84473 16.3759C7.6032 16.3759 7.36788 16.3526 7.13915 16.3094C7.61712 17.7755 9.00305 18.8424 10.6462 18.8722C9.3613 19.8621 7.74261 20.4516 5.98342 20.4516C5.68076 20.4516 5.38177 20.4348 5.08789 20.4006C6.74939 21.4473 8.72231 22.058 10.8427 22.058" fill="white"/>
</g>
<defs>
<clipPath id="clip0_1_9505">
<rect width="28" height="28" fill="white" transform="translate(0.237305 0.75)"/>
</clipPath>
</defs>
</svg>
