<svg width="28" height="29" viewBox="0 0 28 29" fill="none" xmlns="http://www.w3.org/2000/svg">
<g clip-path="url(#clip0_1_9451)">
<path d="M14 28.75C21.732 28.75 28 22.482 28 14.75C28 7.01801 21.732 0.75 14 0.75C6.26801 0.75 0 7.01801 0 14.75C0 22.482 6.26801 28.75 14 28.75Z" fill="#282828"/>
<path d="M22.8505 10.2199C22.6487 9.47033 22.0576 8.87931 21.308 8.67749C19.9386 8.30273 14.4609 8.30273 14.4609 8.30273C14.4609 8.30273 8.98318 8.30273 7.61376 8.66312C6.87856 8.86495 6.27313 9.47033 6.07131 10.2199C5.71094 11.5893 5.71094 14.4291 5.71094 14.4291C5.71094 14.4291 5.71094 17.2834 6.07131 18.6383C6.27313 19.3879 6.86415 19.979 7.61376 20.1808C8.99755 20.5555 14.4609 20.5555 14.4609 20.5555C14.4609 20.5555 19.9386 20.5555 21.308 20.1952C22.0576 19.9934 22.6487 19.4024 22.8505 18.6528C23.2109 17.2834 23.2109 14.4436 23.2109 14.4436C23.2109 14.4436 23.2253 11.5893 22.8505 10.2199Z" fill="white"/>
<path d="M17.272 14.4283L12.7168 11.8047V17.0518L17.272 14.4283Z" fill="#191919"/>
</g>
<defs>
<clipPath id="clip0_1_9451">
<rect width="28" height="28" fill="white" transform="translate(0 0.75)"/>
</clipPath>
</defs>
</svg>
