<svg width="22" height="18" viewBox="0 0 22 18" fill="none" xmlns="http://www.w3.org/2000/svg">
<path d="M7.24883 8.85C8.08216 9.21667 8.73216 9.76667 9.19883 10.5C9.6655 11.2333 9.89883 12.1 9.89883 13.1C9.89883 14.5333 9.44883 15.7 8.54883 16.6C7.64883 17.4667 6.49883 17.9 5.09883 17.9C3.69883 17.9 2.53216 17.45 1.59883 16.55C0.698828 15.65 0.248828 14.5 0.248828 13.1C0.248828 12.4333 0.332162 11.7667 0.498828 11.1C0.665495 10.4333 1.03216 9.43333 1.59883 8.1L4.49883 0.899998H9.44883L7.24883 8.85ZM19.0488 8.85C19.8822 9.21667 20.5322 9.76667 20.9988 10.5C21.4655 11.2333 21.6988 12.1 21.6988 13.1C21.6988 14.5333 21.2488 15.7 20.3488 16.6C19.4488 17.4667 18.2988 17.9 16.8988 17.9C15.4988 17.9 14.3322 17.45 13.3988 16.55C12.4988 15.65 12.0488 14.5 12.0488 13.1C12.0488 12.4333 12.1322 11.7667 12.2988 11.1C12.4655 10.4333 12.8322 9.43333 13.3988 8.1L16.2988 0.899998H21.2488L19.0488 8.85Z" fill="#0094FF"/>
</svg>
