<svg width="40" height="40" viewBox="0 0 40 40" fill="none" xmlns="http://www.w3.org/2000/svg">
<circle cx="20" cy="20" r="20" fill="#0094FF"/>
<path d="M21.9513 20.5138L21.625 20.8513V17.9375C21.625 17.6392 21.5065 17.353 21.2955 17.142C21.0845 16.9311 20.7984 16.8125 20.5 16.8125C20.2016 16.8125 19.9155 16.9311 19.7045 17.142C19.4935 17.353 19.375 17.6392 19.375 17.9375V20.8513L19.0487 20.5138C18.8369 20.3019 18.5496 20.1829 18.25 20.1829C17.9504 20.1829 17.6631 20.3019 17.4513 20.5138C17.2394 20.7256 17.1204 21.0129 17.1204 21.3125C17.1204 21.6121 17.2394 21.8994 17.4513 22.1113L19.7013 24.3613C19.8082 24.4637 19.9344 24.544 20.0725 24.5975C20.2072 24.657 20.3528 24.6878 20.5 24.6878C20.6472 24.6878 20.7928 24.657 20.9275 24.5975C21.0656 24.544 21.1918 24.4637 21.2987 24.3613L23.5487 22.1113C23.7606 21.8994 23.8796 21.6121 23.8796 21.3125C23.8796 21.0129 23.7606 20.7256 23.5487 20.5138C23.3369 20.3019 23.0496 20.1829 22.75 20.1829C22.4504 20.1829 22.1631 20.3019 21.9513 20.5138ZM28.375 11.1875H21.31L20.95 10.0625C20.7166 9.40241 20.2837 8.83122 19.7113 8.42808C19.1388 8.02495 18.4552 7.80983 17.755 7.81253H12.625C11.7299 7.81253 10.8714 8.1681 10.2385 8.80104C9.60558 9.43398 9.25 10.2924 9.25 11.1875V25.8125C9.25 26.7076 9.60558 27.5661 10.2385 28.199C10.8714 28.8319 11.7299 29.1875 12.625 29.1875H28.375C29.2701 29.1875 30.1286 28.8319 30.7615 28.199C31.3944 27.5661 31.75 26.7076 31.75 25.8125V14.5625C31.75 13.6674 31.3944 12.809 30.7615 12.176C30.1286 11.5431 29.2701 11.1875 28.375 11.1875ZM29.5 25.8125C29.5 26.1109 29.3815 26.397 29.1705 26.608C28.9595 26.819 28.6734 26.9375 28.375 26.9375H12.625C12.3266 26.9375 12.0405 26.819 11.8295 26.608C11.6185 26.397 11.5 26.1109 11.5 25.8125V11.1875C11.5 10.8892 11.6185 10.603 11.8295 10.392C12.0405 10.1811 12.3266 10.0625 12.625 10.0625H17.755C17.9908 10.0619 18.2209 10.1354 18.4127 10.2727C18.6045 10.41 18.7483 10.6041 18.8238 10.8275L19.4313 12.6725C19.5067 12.896 19.6505 13.0901 19.8423 13.2273C20.0341 13.3646 20.2642 13.4381 20.5 13.4375H28.375C28.6734 13.4375 28.9595 13.5561 29.1705 13.767C29.3815 13.978 29.5 14.2642 29.5 14.5625V25.8125Z" fill="white"/>
</svg>
