<svg width="40" height="40" viewBox="0 0 40 40" fill="none" xmlns="http://www.w3.org/2000/svg">
<circle cx="20" cy="20" r="20" fill="#0094FF"/>
<path d="M23.6613 20.815C24.3734 20.0503 24.7745 19.0474 24.7863 18.0025C24.7863 16.8747 24.3382 15.793 23.5407 14.9955C22.7432 14.198 21.6616 13.75 20.5337 13.75C19.4059 13.75 18.3243 14.198 17.5268 14.9955C16.7293 15.793 16.2812 16.8747 16.2812 18.0025C16.293 19.0474 16.6941 20.0503 17.4062 20.815C16.4147 21.3087 15.5615 22.0412 14.9233 22.9465C14.2851 23.8518 13.8819 24.9015 13.75 26.0012C13.7172 26.2996 13.8042 26.5988 13.992 26.833C14.1798 27.0672 14.4529 27.2172 14.7512 27.25C15.0496 27.2828 15.3488 27.1958 15.583 27.008C15.8172 26.8202 15.9672 26.5471 16 26.2488C16.1342 25.1588 16.6625 24.1555 17.4851 23.428C18.3077 22.7004 19.368 22.2989 20.4663 22.2989C21.5645 22.2989 22.6248 22.7004 23.4474 23.428C24.27 24.1555 24.7982 25.1588 24.9325 26.2488C24.9638 26.5372 25.1053 26.8024 25.3275 26.989C25.5498 27.1756 25.8355 27.2691 26.125 27.25H26.2488C26.5437 27.2161 26.8132 27.067 26.9986 26.8352C27.1841 26.6034 27.2704 26.3077 27.2388 26.0125C27.1166 24.9185 26.7262 23.8717 26.1021 22.9649C25.478 22.0582 24.6395 21.3197 23.6613 20.815ZM20.5 20.005C20.1039 20.005 19.7168 19.8876 19.3875 19.6675C19.0582 19.4475 18.8015 19.1347 18.6499 18.7688C18.4984 18.4029 18.4587 18.0003 18.536 17.6118C18.6132 17.2234 18.804 16.8666 19.084 16.5865C19.3641 16.3065 19.7209 16.1157 20.1093 16.0385C20.4978 15.9612 20.9004 16.0009 21.2663 16.1524C21.6322 16.304 21.945 16.5607 22.165 16.89C22.3851 17.2193 22.5025 17.6064 22.5025 18.0025C22.5025 18.5336 22.2915 19.0429 21.916 19.4185C21.5404 19.794 21.0311 20.005 20.5 20.005ZM28.375 9.25H12.625C11.7299 9.25 10.8714 9.60558 10.2385 10.2385C9.60558 10.8714 9.25 11.7299 9.25 12.625V28.375C9.25 29.2701 9.60558 30.1286 10.2385 30.7615C10.8714 31.3944 11.7299 31.75 12.625 31.75H28.375C29.2701 31.75 30.1286 31.3944 30.7615 30.7615C31.3944 30.1286 31.75 29.2701 31.75 28.375V12.625C31.75 11.7299 31.3944 10.8714 30.7615 10.2385C30.1286 9.60558 29.2701 9.25 28.375 9.25ZM29.5 28.375C29.5 28.6734 29.3815 28.9595 29.1705 29.1705C28.9595 29.3815 28.6734 29.5 28.375 29.5H12.625C12.3266 29.5 12.0405 29.3815 11.8295 29.1705C11.6185 28.9595 11.5 28.6734 11.5 28.375V12.625C11.5 12.3266 11.6185 12.0405 11.8295 11.8295C12.0405 11.6185 12.3266 11.5 12.625 11.5H28.375C28.6734 11.5 28.9595 11.6185 29.1705 11.8295C29.3815 12.0405 29.5 12.3266 29.5 12.625V28.375Z" fill="white"/>
</svg>
