<svg width="40" height="40" viewBox="0 0 40 40" fill="none" xmlns="http://www.w3.org/2000/svg">
<circle cx="20" cy="20" r="20" fill="#0094FF"/>
<path d="M15.3337 18.8333C15.1029 18.8333 14.8774 18.9017 14.6855 19.0299C14.4936 19.1581 14.3441 19.3403 14.2558 19.5535C14.1675 19.7667 14.1444 20.0013 14.1894 20.2276C14.2344 20.4539 14.3455 20.6618 14.5087 20.8249C14.6719 20.9881 14.8797 21.0992 15.1061 21.1442C15.3324 21.1892 15.5669 21.1661 15.7801 21.0778C15.9933 20.9895 16.1755 20.84 16.3037 20.6481C16.4319 20.4563 16.5003 20.2307 16.5003 20C16.5003 19.6906 16.3774 19.3938 16.1586 19.175C15.9398 18.9562 15.6431 18.8333 15.3337 18.8333ZM20.0003 18.8333C19.7696 18.8333 19.544 18.9017 19.3522 19.0299C19.1603 19.1581 19.0108 19.3403 18.9225 19.5535C18.8342 19.7667 18.8111 20.0013 18.8561 20.2276C18.9011 20.4539 19.0122 20.6618 19.1754 20.8249C19.3385 20.9881 19.5464 21.0992 19.7727 21.1442C19.999 21.1892 20.2336 21.1661 20.4468 21.0778C20.66 20.9895 20.8422 20.84 20.9704 20.6481C21.0986 20.4563 21.167 20.2307 21.167 20C21.167 19.6906 21.0441 19.3938 20.8253 19.175C20.6065 18.9562 20.3098 18.8333 20.0003 18.8333ZM24.667 18.8333C24.4363 18.8333 24.2107 18.9017 24.0188 19.0299C23.827 19.1581 23.6774 19.3403 23.5891 19.5535C23.5008 19.7667 23.4777 20.0013 23.5228 20.2276C23.5678 20.4539 23.6789 20.6618 23.842 20.8249C24.0052 20.9881 24.2131 21.0992 24.4394 21.1442C24.6657 21.1892 24.9003 21.1661 25.1135 21.0778C25.3266 20.9895 25.5089 20.84 25.637 20.6481C25.7652 20.4563 25.8337 20.2307 25.8337 20C25.8337 19.6906 25.7108 19.3938 25.492 19.175C25.2732 18.9562 24.9764 18.8333 24.667 18.8333ZM20.0003 8.33331C18.4682 8.33331 16.9512 8.63508 15.5357 9.22139C14.1202 9.80769 12.8341 10.6671 11.7508 11.7504C9.56283 13.9383 8.33367 16.9058 8.33367 20C8.32347 22.694 9.25626 25.3066 10.9703 27.385L8.637 29.7183C8.47511 29.8824 8.36545 30.0907 8.32185 30.317C8.27825 30.5434 8.30266 30.7775 8.392 30.99C8.4889 31.1999 8.64599 31.3763 8.84332 31.4968C9.04065 31.6172 9.26933 31.6764 9.50033 31.6666H20.0003C23.0945 31.6666 26.062 30.4375 28.2499 28.2496C30.4378 26.0616 31.667 23.0942 31.667 20C31.667 16.9058 30.4378 13.9383 28.2499 11.7504C26.062 9.56248 23.0945 8.33331 20.0003 8.33331ZM20.0003 29.3333H12.312L13.397 28.2483C13.5072 28.1403 13.5949 28.0114 13.655 27.8692C13.7151 27.727 13.7464 27.5743 13.747 27.42C13.7426 27.1122 13.6168 26.8187 13.397 26.6033C11.8693 25.0774 10.918 23.0689 10.7051 20.9202C10.4922 18.7715 11.0309 16.6155 12.2294 14.8194C13.4279 13.0234 15.2121 11.6984 17.2779 11.0703C19.3438 10.4422 21.5635 10.5498 23.5589 11.3747C25.5543 12.1997 27.202 13.691 28.2212 15.5945C29.2404 17.4981 29.568 19.6961 29.1483 21.8142C28.7286 23.9322 27.5875 25.8392 25.9195 27.2103C24.2514 28.5813 22.1596 29.3316 20.0003 29.3333Z" fill="white"/>
</svg>
