<svg width="40" height="40" viewBox="0 0 40 40" fill="none" xmlns="http://www.w3.org/2000/svg">
<circle cx="20" cy="20" r="20" fill="#0094FF"/>
<path d="M32.5838 16.6846C32.5075 16.4636 32.3687 16.2694 32.1842 16.1257C31.9998 15.982 31.7776 15.8949 31.5446 15.875L24.6692 14.8721L21.5879 8.62499C21.489 8.4207 21.3345 8.24841 21.1422 8.12785C20.9498 8.0073 20.7274 7.94336 20.5004 7.94336C20.2734 7.94336 20.051 8.0073 19.8587 8.12785C19.6664 8.24841 19.5119 8.4207 19.4129 8.62499L16.3317 14.86L9.45627 15.875C9.23264 15.9068 9.02239 16.0006 8.84939 16.1458C8.67639 16.2911 8.54756 16.4819 8.47752 16.6967C8.41342 16.9065 8.40766 17.1299 8.46088 17.3427C8.5141 17.5556 8.62429 17.75 8.77961 17.905L13.77 22.7383L12.5617 29.6017C12.5186 29.8282 12.5411 30.0623 12.6268 30.2765C12.7124 30.4906 12.8576 30.6757 13.045 30.81C13.2277 30.9406 13.4433 31.0177 13.6674 31.0327C13.8915 31.0476 14.1153 30.9998 14.3138 30.8946L20.5004 27.6683L26.6629 30.9067C26.8325 31.0023 27.0241 31.0523 27.2188 31.0517C27.4747 31.0526 27.7244 30.9722 27.9317 30.8221C28.1192 30.6878 28.2643 30.5026 28.3499 30.2885C28.4356 30.0744 28.4582 29.8403 28.415 29.6137L27.2067 22.7504L32.1971 17.9171C32.3716 17.7693 32.5005 17.575 32.569 17.3568C32.6374 17.1387 32.6425 16.9055 32.5838 16.6846ZM25.1525 21.5179C25.0108 21.655 24.9048 21.8246 24.8437 22.0121C24.7826 22.1995 24.7684 22.3991 24.8021 22.5933L25.6721 27.6562L21.1288 25.2396C20.9539 25.1465 20.7589 25.0978 20.5609 25.0978C20.3628 25.0978 20.1678 25.1465 19.9929 25.2396L15.4496 27.6562L16.3196 22.5933C16.3534 22.3991 16.3391 22.1995 16.278 22.0121C16.2169 21.8246 16.1109 21.655 15.9692 21.5179L12.3442 17.8929L17.4313 17.1558C17.627 17.1286 17.8131 17.0538 17.9732 16.9379C18.1333 16.822 18.2626 16.6687 18.3496 16.4912L20.5004 11.8875L22.7721 16.5033C22.8592 16.6808 22.9884 16.8341 23.1485 16.95C23.3086 17.0659 23.4947 17.1407 23.6904 17.1679L28.7775 17.905L25.1525 21.5179Z" fill="white"/>
</svg>
