<svg width="40" height="40" viewBox="0 0 40 40" fill="none" xmlns="http://www.w3.org/2000/svg">
<circle cx="20" cy="20" r="20" fill="#0094FF"/>
<path d="M26 23V13C26 12.2044 25.6839 11.4413 25.1213 10.8787C24.5587 10.3161 23.7956 10 23 10H13C12.2044 10 11.4413 10.3161 10.8787 10.8787C10.3161 11.4413 10 12.2044 10 13V23C10 23.7956 10.3161 24.5587 10.8787 25.1213C11.4413 25.6839 12.2044 26 13 26H23C23.7956 26 24.5587 25.6839 25.1213 25.1213C25.6839 24.5587 26 23.7956 26 23ZM12 13C12 12.7348 12.1054 12.4804 12.2929 12.2929C12.4804 12.1054 12.7348 12 13 12H23C23.2652 12 23.5196 12.1054 23.7071 12.2929C23.8946 12.4804 24 12.7348 24 13V17.36L22.92 16.27C22.44 15.7899 21.7889 15.5201 21.11 15.52C20.4315 15.5223 19.7812 15.7917 19.3 16.27L18.39 17.18L17.58 16.37C17.0319 15.8307 16.2939 15.5285 15.525 15.5285C14.7561 15.5285 14.0181 15.8307 13.47 16.37L12 17.85V13ZM12.12 23.45C12.0429 23.3124 12.0016 23.1577 12 23V20.67L14.88 17.79C14.9646 17.705 15.0651 17.6376 15.1758 17.5916C15.2864 17.5456 15.4051 17.5219 15.525 17.5219C15.6449 17.5219 15.7636 17.5456 15.8742 17.5916C15.9849 17.6376 16.0854 17.705 16.17 17.79L17 18.6L12.12 23.45ZM20.72 17.69C20.7693 17.6358 20.8296 17.5926 20.8968 17.5633C20.964 17.534 21.0367 17.5192 21.11 17.52C21.1833 17.5192 21.256 17.534 21.3232 17.5633C21.3904 17.5926 21.4507 17.6358 21.5 17.69L24 20.18V23C24 23.2652 23.8946 23.5196 23.7071 23.7071C23.5196 23.8946 23.2652 24 23 24H14.4L20.72 17.69ZM29 14C28.7348 14 28.4804 14.1054 28.2929 14.2929C28.1054 14.4804 28 14.7348 28 15V25C28 25.7956 27.6839 26.5587 27.1213 27.1213C26.5587 27.6839 25.7956 28 25 28H15C14.7348 28 14.4804 28.1054 14.2929 28.2929C14.1054 28.4804 14 28.7348 14 29C14 29.2652 14.1054 29.5196 14.2929 29.7071C14.4804 29.8946 14.7348 30 15 30H25C26.3261 30 27.5979 29.4732 28.5355 28.5355C29.4732 27.5979 30 26.3261 30 25V15C30 14.7348 29.8946 14.4804 29.7071 14.2929C29.5196 14.1054 29.2652 14 29 14Z" fill="white"/>
</svg>
