<svg width="36" height="36" viewBox="0 0 36 36" fill="none" xmlns="http://www.w3.org/2000/svg">
<path d="M6 18C6 18.3978 6.15804 18.7794 6.43934 19.0607C6.72064 19.342 7.10218 19.5 7.5 19.5H18.885L15.435 22.935C15.2944 23.0744 15.1828 23.2403 15.1067 23.4231C15.0305 23.6059 14.9913 23.802 14.9913 24C14.9913 24.198 15.0305 24.3941 15.1067 24.5769C15.1828 24.7597 15.2944 24.9256 15.435 25.065C15.5744 25.2056 15.7403 25.3172 15.9231 25.3933C16.1059 25.4695 16.302 25.5087 16.5 25.5087C16.698 25.5087 16.8941 25.4695 17.0769 25.3933C17.2597 25.3172 17.4256 25.2056 17.565 25.065L23.565 19.065C23.7016 18.9223 23.8086 18.7541 23.88 18.57C24.03 18.2048 24.03 17.7952 23.88 17.43C23.8086 17.2459 23.7016 17.0777 23.565 16.935L17.565 10.935C17.4251 10.7951 17.2591 10.6842 17.0764 10.6085C16.8936 10.5328 16.6978 10.4939 16.5 10.4939C16.3022 10.4939 16.1064 10.5328 15.9236 10.6085C15.7409 10.6842 15.5749 10.7951 15.435 10.935C15.2951 11.0749 15.1842 11.2409 15.1085 11.4236C15.0328 11.6064 14.9939 11.8022 14.9939 12C14.9939 12.1978 15.0328 12.3936 15.1085 12.5764C15.1842 12.7591 15.2951 12.9251 15.435 13.065L18.885 16.5H7.5C7.10218 16.5 6.72064 16.658 6.43934 16.9393C6.15804 17.2206 6 17.6022 6 18ZM25.5 3H10.5C9.30653 3 8.16193 3.47411 7.31802 4.31802C6.47411 5.16193 6 6.30653 6 7.5V12C6 12.3978 6.15804 12.7794 6.43934 13.0607C6.72064 13.342 7.10218 13.5 7.5 13.5C7.89782 13.5 8.27936 13.342 8.56066 13.0607C8.84196 12.7794 9 12.3978 9 12V7.5C9 7.10218 9.15804 6.72064 9.43934 6.43934C9.72064 6.15804 10.1022 6 10.5 6H25.5C25.8978 6 26.2794 6.15804 26.5607 6.43934C26.842 6.72064 27 7.10218 27 7.5V28.5C27 28.8978 26.842 29.2794 26.5607 29.5607C26.2794 29.842 25.8978 30 25.5 30H10.5C10.1022 30 9.72064 29.842 9.43934 29.5607C9.15804 29.2794 9 28.8978 9 28.5V24C9 23.6022 8.84196 23.2206 8.56066 22.9393C8.27936 22.658 7.89782 22.5 7.5 22.5C7.10218 22.5 6.72064 22.658 6.43934 22.9393C6.15804 23.2206 6 23.6022 6 24V28.5C6 29.6935 6.47411 30.8381 7.31802 31.682C8.16193 32.5259 9.30653 33 10.5 33H25.5C26.6935 33 27.8381 32.5259 28.682 31.682C29.5259 30.8381 30 29.6935 30 28.5V7.5C30 6.30653 29.5259 5.16193 28.682 4.31802C27.8381 3.47411 26.6935 3 25.5 3Z" fill="white"/>
</svg>
