<svg width="40" height="40" viewBox="0 0 40 40" fill="none" xmlns="http://www.w3.org/2000/svg">
<circle cx="20" cy="20" r="20" fill="#0094FF"/>
<path d="M14.875 21.75H17.125C17.4234 21.75 17.7095 21.6315 17.9205 21.4205C18.1315 21.2095 18.25 20.9234 18.25 20.625C18.25 20.3266 18.1315 20.0405 17.9205 19.8295C17.7095 19.6185 17.4234 19.5 17.125 19.5H14.875C14.5766 19.5 14.2905 19.6185 14.0795 19.8295C13.8685 20.0405 13.75 20.3266 13.75 20.625C13.75 20.9234 13.8685 21.2095 14.0795 21.4205C14.2905 21.6315 14.5766 21.75 14.875 21.75ZM21.625 24H14.875C14.5766 24 14.2905 24.1185 14.0795 24.3295C13.8685 24.5405 13.75 24.8266 13.75 25.125C13.75 25.4234 13.8685 25.7095 14.0795 25.9205C14.2905 26.1315 14.5766 26.25 14.875 26.25H21.625C21.9234 26.25 22.2095 26.1315 22.4205 25.9205C22.6315 25.7095 22.75 25.4234 22.75 25.125C22.75 24.8266 22.6315 24.5405 22.4205 24.3295C22.2095 24.1185 21.9234 24 21.625 24ZM28.375 8.25H12.625C11.7299 8.25 10.8714 8.60558 10.2385 9.23851C9.60558 9.87145 9.25 10.7299 9.25 11.625V27.375C9.25 28.2701 9.60558 29.1286 10.2385 29.7615C10.8714 30.3944 11.7299 30.75 12.625 30.75H28.375C29.2701 30.75 30.1286 30.3944 30.7615 29.7615C31.3944 29.1286 31.75 28.2701 31.75 27.375V11.625C31.75 10.7299 31.3944 9.87145 30.7615 9.23851C30.1286 8.60558 29.2701 8.25 28.375 8.25ZM22.75 10.5V14.2013L21.0512 13.2562C20.8802 13.1575 20.6862 13.1055 20.4887 13.1055C20.2913 13.1055 20.0973 13.1575 19.9262 13.2562L18.25 14.2013V10.5H22.75ZM29.5 27.375C29.5 27.6734 29.3815 27.9595 29.1705 28.1705C28.9595 28.3815 28.6734 28.5 28.375 28.5H12.625C12.3266 28.5 12.0405 28.3815 11.8295 28.1705C11.6185 27.9595 11.5 27.6734 11.5 27.375V11.625C11.5 11.3266 11.6185 11.0405 11.8295 10.8295C12.0405 10.6185 12.3266 10.5 12.625 10.5H16V16.125C16.0012 16.3213 16.0537 16.5139 16.1524 16.6837C16.2511 16.8534 16.3925 16.9943 16.5625 17.0925C16.7335 17.1912 16.9275 17.2432 17.125 17.2432C17.3225 17.2432 17.5165 17.1912 17.6875 17.0925L20.5 15.5288L23.3238 17.1038C23.4919 17.199 23.6817 17.2494 23.875 17.25C24.1734 17.25 24.4595 17.1315 24.6705 16.9205C24.8815 16.7095 25 16.4234 25 16.125V10.5H28.375C28.6734 10.5 28.9595 10.6185 29.1705 10.8295C29.3815 11.0405 29.5 11.3266 29.5 11.625V27.375Z" fill="white"/>
</svg>
