<svg width="40" height="40" viewBox="0 0 40 40" fill="none" xmlns="http://www.w3.org/2000/svg">
<circle cx="20" cy="20" r="20" fill="#0094FF"/>
<path d="M32.427 16.7334L29.907 15.8934L31.0937 13.52C31.214 13.2716 31.2542 12.992 31.2088 12.7197C31.1634 12.4475 31.0347 12.196 30.8403 12L28.0003 9.16002C27.8033 8.96281 27.5494 8.8323 27.2744 8.78686C26.9993 8.74142 26.717 8.78333 26.467 8.90669L24.0937 10.0934L23.2537 7.57336C23.1649 7.31068 22.9966 7.08219 22.7719 6.91969C22.5473 6.75719 22.2776 6.66875 22.0003 6.66669H18.0003C17.7208 6.66597 17.4481 6.75312 17.2208 6.91581C16.9935 7.07851 16.8231 7.30853 16.7337 7.57336L15.8937 10.0934L13.5203 8.90669C13.2719 8.7864 12.9923 8.74616 12.72 8.79154C12.4478 8.83692 12.1963 8.96567 12.0003 9.16002L9.16033 12C8.96311 12.197 8.83261 12.4509 8.78716 12.726C8.74172 13.001 8.78363 13.2834 8.907 13.5334L10.0937 15.9067L7.57366 16.7467C7.31099 16.8354 7.0825 17.0038 6.91999 17.2284C6.75749 17.4531 6.66906 17.7228 6.667 18V22C6.66628 22.2795 6.75342 22.5522 6.91612 22.7795C7.07882 23.0068 7.30884 23.1772 7.57366 23.2667L10.0937 24.1067L8.907 26.48C8.7867 26.7284 8.74647 27.0081 8.79184 27.2803C8.83722 27.5526 8.96597 27.804 9.16033 28L12.0003 30.84C12.1973 31.0372 12.4512 31.1677 12.7263 31.2132C13.0013 31.2586 13.2837 31.2167 13.5337 31.0934L15.907 29.9067L16.747 32.4267C16.8364 32.6915 17.0069 32.9215 17.2342 33.0842C17.4615 33.2469 17.7341 33.3341 18.0137 33.3334H22.0137C22.2932 33.3341 22.5659 33.2469 22.7932 33.0842C23.0205 32.9215 23.1909 32.6915 23.2803 32.4267L24.1203 29.9067L26.4937 31.0934C26.7405 31.2106 27.0174 31.2492 27.2869 31.2039C27.5564 31.1586 27.8054 31.0316 28.0003 30.84L30.8403 28C31.0375 27.803 31.1681 27.5491 31.2135 27.2741C31.2589 26.999 31.217 26.7167 31.0937 26.4667L29.907 24.0934L32.427 23.2534C32.6897 23.1646 32.9182 22.9963 33.0807 22.7716C33.2432 22.547 33.3316 22.2773 33.3337 22V18C33.3344 17.7205 33.2472 17.4478 33.0845 17.2205C32.9218 16.9932 32.6918 16.8228 32.427 16.7334ZM30.667 21.04L29.067 21.5734C28.6991 21.6927 28.3615 21.8907 28.0777 22.1535C27.794 22.4163 27.5708 22.7377 27.4236 23.0955C27.2765 23.4532 27.2089 23.8386 27.2256 24.2251C27.2423 24.6115 27.3429 24.9897 27.5203 25.3334L28.2803 26.8534L26.8137 28.32L25.3337 27.52C24.9917 27.3497 24.6172 27.2548 24.2354 27.2418C23.8536 27.2287 23.4735 27.2979 23.1208 27.4445C22.768 27.5912 22.4509 27.8119 22.1909 28.0918C21.9309 28.3717 21.734 28.7041 21.6137 29.0667L21.0803 30.6667H18.9603L18.427 29.0667C18.3077 28.6988 18.1097 28.3612 17.8469 28.0774C17.584 27.7937 17.2626 27.5704 16.9049 27.4233C16.5472 27.2762 16.1617 27.2086 15.7753 27.2253C15.3889 27.242 15.0107 27.3426 14.667 27.52L13.147 28.28L11.6803 26.8134L12.4803 25.3334C12.6578 24.9897 12.7584 24.6115 12.7751 24.2251C12.7918 23.8386 12.7242 23.4532 12.577 23.0955C12.4299 22.7377 12.2067 22.4163 11.9229 22.1535C11.6391 21.8907 11.3016 21.6927 10.9337 21.5734L9.33366 21.04V18.96L10.9337 18.4267C11.3016 18.3073 11.6391 18.1094 11.9229 17.8466C12.2067 17.5837 12.4299 17.2623 12.577 16.9046C12.7242 16.5469 12.7918 16.1614 12.7751 15.775C12.7584 15.3886 12.6578 15.0104 12.4803 14.6667L11.7203 13.1867L13.187 11.72L14.667 12.48C15.0107 12.6575 15.3889 12.7581 15.7753 12.7748C16.1617 12.7915 16.5472 12.7239 16.9049 12.5767C17.2626 12.4296 17.584 12.2064 17.8469 11.9226C18.1097 11.6388 18.3077 11.3013 18.427 10.9334L18.9603 9.33336H21.0403L21.5737 10.9334C21.693 11.3013 21.891 11.6388 22.1538 11.9226C22.4166 12.2064 22.7381 12.4296 23.0958 12.5767C23.4535 12.7239 23.8389 12.7915 24.2254 12.7748C24.6118 12.7581 24.99 12.6575 25.3337 12.48L26.8537 11.72L28.3203 13.1867L27.5203 14.6667C27.35 15.0086 27.2551 15.3832 27.2421 15.7649C27.229 16.1467 27.2982 16.5269 27.4449 16.8796C27.5915 17.2323 27.8122 17.5494 28.0921 17.8095C28.372 18.0695 28.7044 18.2663 29.067 18.3867L30.667 18.92V21.04ZM20.0003 14.6667C18.9455 14.6667 17.9144 14.9795 17.0373 15.5655C16.1602 16.1516 15.4766 16.9845 15.073 17.959C14.6693 18.9336 14.5637 20.0059 14.7695 21.0405C14.9753 22.0751 15.4832 23.0254 16.2291 23.7713C16.975 24.5171 17.9253 25.0251 18.9598 25.2309C19.9944 25.4367 21.0668 25.331 22.0413 24.9274C23.0158 24.5237 23.8488 23.8401 24.4348 22.9631C25.0209 22.086 25.3337 21.0549 25.3337 20C25.3337 18.5855 24.7718 17.229 23.7716 16.2288C22.7714 15.2286 21.4148 14.6667 20.0003 14.6667ZM20.0003 22.6667C19.4729 22.6667 18.9573 22.5103 18.5188 22.2173C18.0803 21.9243 17.7385 21.5078 17.5366 21.0205C17.3348 20.5332 17.282 19.9971 17.3849 19.4798C17.4878 18.9625 17.7418 18.4873 18.1147 18.1144C18.4877 17.7415 18.9628 17.4875 19.4801 17.3846C19.9974 17.2817 20.5335 17.3345 21.0208 17.5363C21.5081 17.7382 21.9246 18.08 22.2176 18.5185C22.5106 18.957 22.667 19.4726 22.667 20C22.667 20.7073 22.386 21.3855 21.8859 21.8856C21.3858 22.3857 20.7076 22.6667 20.0003 22.6667Z" fill="white"/>
</svg>
