<svg width="48" height="48" viewBox="0 0 48 48" fill="none" xmlns="http://www.w3.org/2000/svg">
<path d="M29.62 24.56C30.886 23.2005 31.5991 21.4175 31.62 19.56C31.62 17.555 30.8235 15.632 29.4057 14.2143C27.988 12.7965 26.065 12 24.06 12C22.055 12 20.132 12.7965 18.7143 14.2143C17.2965 15.632 16.5 17.555 16.5 19.56C16.5209 21.4175 17.234 23.2005 18.5 24.56C16.7373 25.4377 15.2204 26.7399 14.0858 28.3493C12.9512 29.9587 12.2345 31.8249 12 33.78C11.9417 34.3104 12.0964 34.8423 12.4302 35.2587C12.764 35.675 13.2496 35.9417 13.78 36C14.3104 36.0583 14.8423 35.9036 15.2586 35.5698C15.675 35.236 15.9417 34.7504 16 34.22C16.2387 32.2823 17.1777 30.4987 18.6402 29.2053C20.1027 27.9119 21.9876 27.198 23.94 27.198C25.8924 27.198 27.7773 27.9119 29.2398 29.2053C30.7023 30.4987 31.6413 32.2823 31.88 34.22C31.9356 34.7328 32.1872 35.2043 32.5823 35.536C32.9773 35.8677 33.4853 36.034 34 36H34.22C34.7443 35.9397 35.2235 35.6746 35.5531 35.2625C35.8828 34.8504 36.0362 34.3247 35.98 33.8C35.7629 31.8552 35.0688 29.9941 33.9592 28.3821C32.8497 26.7701 31.3591 25.4572 29.62 24.56ZM24 23.12C23.2959 23.12 22.6076 22.9112 22.0222 22.52C21.4367 22.1289 20.9804 21.5729 20.711 20.9224C20.4415 20.2718 20.371 19.5561 20.5084 18.8655C20.6458 18.1749 20.9848 17.5406 21.4827 17.0427C21.9806 16.5448 22.6149 16.2058 23.3055 16.0684C23.9961 15.931 24.7118 16.0015 25.3624 16.271C26.0129 16.5404 26.5689 16.9967 26.96 17.5822C27.3512 18.1676 27.56 18.8559 27.56 19.56C27.56 20.5042 27.1849 21.4097 26.5173 22.0773C25.8497 22.7449 24.9442 23.12 24 23.12ZM38 4H10C8.4087 4 6.88258 4.63214 5.75736 5.75736C4.63214 6.88258 4 8.4087 4 10V38C4 39.5913 4.63214 41.1174 5.75736 42.2426C6.88258 43.3679 8.4087 44 10 44H38C39.5913 44 41.1174 43.3679 42.2426 42.2426C43.3679 41.1174 44 39.5913 44 38V10C44 8.4087 43.3679 6.88258 42.2426 5.75736C41.1174 4.63214 39.5913 4 38 4ZM40 38C40 38.5304 39.7893 39.0391 39.4142 39.4142C39.0391 39.7893 38.5304 40 38 40H10C9.46957 40 8.96086 39.7893 8.58579 39.4142C8.21071 39.0391 8 38.5304 8 38V10C8 9.46957 8.21071 8.96086 8.58579 8.58579C8.96086 8.21071 9.46957 8 10 8H38C38.5304 8 39.0391 8.21071 39.4142 8.58579C39.7893 8.96086 40 9.46957 40 10V38Z" fill="#979797"/>
</svg>
