<svg width="35" height="35" viewBox="0 0 35 35" fill="none" xmlns="http://www.w3.org/2000/svg">
<path fill-rule="evenodd" clip-rule="evenodd" d="M17.5 0C7.83502 0 0 7.83502 0 17.5C0 27.165 7.83502 35 17.5 35C27.165 35 35 27.165 35 17.5C35 7.83502 27.165 0 17.5 0ZM17.5 3.18188C25.4077 3.18188 31.8181 9.59235 31.8181 17.5001C31.8181 25.4078 25.4077 31.8182 17.5 31.8182C9.59224 31.8182 3.18177 25.4078 3.18177 17.5001C3.18177 9.59235 9.59224 3.18188 17.5 3.18188Z" fill="white"/>
<path fill-rule="evenodd" clip-rule="evenodd" d="M17.5 9.54547C18.3159 9.54547 18.9883 10.1596 19.0802 10.9508L19.0909 11.1364V15.9091H23.8636C24.7423 15.9091 25.4545 16.6214 25.4545 17.5C25.4545 18.3159 24.8404 18.9883 24.0492 19.0802L23.8636 19.0909H19.0909V23.8637C19.0909 24.7423 18.3786 25.4546 17.5 25.4546C16.6841 25.4546 16.0117 24.8404 15.9198 24.0492L15.9091 23.8637V19.0909H11.1364C10.2577 19.0909 9.54546 18.3787 9.54546 17.5C9.54546 16.6841 10.1596 16.0117 10.9508 15.9198L11.1364 15.9091H15.9091V11.1364C15.9091 10.2577 16.6214 9.54547 17.5 9.54547Z" fill="white"/>
</svg>
