<svg width="37" height="37" viewBox="0 0 37 37" fill="none" xmlns="http://www.w3.org/2000/svg">
<path d="M32.221 3.08337H4.77933C4.32957 3.08337 3.89822 3.26204 3.58019 3.58007C3.26216 3.8981 3.0835 4.32944 3.0835 4.77921V32.2209C3.0835 32.4436 3.12736 32.6641 3.21258 32.8698C3.29781 33.0756 3.42272 33.2625 3.58019 33.42C3.73767 33.5775 3.92461 33.7024 4.13036 33.7876C4.33611 33.8728 4.55663 33.9167 4.77933 33.9167H19.5485V21.9688H15.5402V17.3438H19.5485V13.875C19.4655 13.0607 19.5616 12.238 19.8302 11.4647C20.0988 10.6914 20.5333 9.98626 21.1032 9.39867C21.6732 8.81109 22.3648 8.35532 23.1295 8.06332C23.8943 7.77133 24.7136 7.65018 25.5302 7.70837C26.7301 7.70099 27.9294 7.76276 29.1222 7.89337V12.0559H26.671C24.7285 12.0559 24.3585 12.9809 24.3585 14.3221V17.2975H28.9835L28.3822 21.9225H24.3585V33.9167H32.221C32.4437 33.9167 32.6642 33.8728 32.87 33.7876C33.0757 33.7024 33.2627 33.5775 33.4201 33.42C33.5776 33.2625 33.7025 33.0756 33.7877 32.8698C33.873 32.6641 33.9168 32.4436 33.9168 32.2209V4.77921C33.9168 4.55651 33.873 4.33599 33.7877 4.13024C33.7025 3.92449 33.5776 3.73755 33.4201 3.58007C33.2627 3.4226 33.0757 3.29769 32.87 3.21246C32.6642 3.12724 32.4437 3.08337 32.221 3.08337Z" fill="black"/>
</svg>
