<svg width="29" height="29" viewBox="0 0 29 29" fill="none" xmlns="http://www.w3.org/2000/svg">
<path d="M26.5838 11.6846C26.5075 11.4636 26.3687 11.2694 26.1842 11.1257C25.9998 10.982 25.7776 10.8949 25.5446 10.875L18.6692 9.87208L15.5879 3.62499C15.489 3.4207 15.3345 3.24841 15.1422 3.12785C14.9498 3.0073 14.7274 2.94336 14.5004 2.94336C14.2734 2.94336 14.051 3.0073 13.8587 3.12785C13.6664 3.24841 13.5119 3.4207 13.4129 3.62499L10.3317 9.85999L3.45627 10.875C3.23264 10.9068 3.02239 11.0006 2.84939 11.1458C2.67639 11.2911 2.54756 11.4819 2.47752 11.6967C2.41342 11.9065 2.40766 12.1299 2.46088 12.3427C2.5141 12.5556 2.62429 12.75 2.77961 12.905L7.77002 17.7383L6.56169 24.6017C6.51855 24.8282 6.54114 25.0623 6.62679 25.2765C6.71243 25.4906 6.85756 25.6757 7.04502 25.81C7.22775 25.9406 7.44326 26.0177 7.66737 26.0327C7.89149 26.0476 8.11533 25.9998 8.31377 25.8946L14.5004 22.6683L20.6629 25.9067C20.8325 26.0023 21.0241 26.0523 21.2188 26.0517C21.4747 26.0526 21.7244 25.9722 21.9317 25.8221C22.1192 25.6878 22.2643 25.5026 22.3499 25.2885C22.4356 25.0744 22.4582 24.8403 22.415 24.6137L21.2067 17.7504L26.1971 12.9171C26.3716 12.7693 26.5005 12.575 26.569 12.3568C26.6374 12.1387 26.6425 11.9055 26.5838 11.6846ZM19.1525 16.5179C19.0108 16.655 18.9048 16.8246 18.8437 17.0121C18.7826 17.1995 18.7684 17.3991 18.8021 17.5933L19.6721 22.6562L15.1288 20.2396C14.9539 20.1465 14.7589 20.0978 14.5609 20.0978C14.3628 20.0978 14.1678 20.1465 13.9929 20.2396L9.44961 22.6562L10.3196 17.5933C10.3534 17.3991 10.3391 17.1995 10.278 17.0121C10.2169 16.8246 10.1109 16.655 9.96919 16.5179L6.34419 12.8929L11.4313 12.1558C11.627 12.1286 11.8131 12.0538 11.9732 11.9379C12.1333 11.822 12.2626 11.6687 12.3496 11.4912L14.5004 6.88749L16.7721 11.5033C16.8592 11.6808 16.9884 11.8341 17.1485 11.95C17.3086 12.0659 17.4947 12.1407 17.6904 12.1679L22.7775 12.905L19.1525 16.5179Z" fill="#353535"/>
</svg>
