<svg width="37" height="37" viewBox="0 0 37 37" fill="none" xmlns="http://www.w3.org/2000/svg">
<path d="M18.5002 14.6767C17.744 14.6767 17.0048 14.9009 16.376 15.3211C15.7473 15.7412 15.2572 16.3383 14.9679 17.0369C14.6785 17.7355 14.6028 18.5043 14.7503 19.2459C14.8978 19.9876 15.262 20.6688 15.7967 21.2035C16.3314 21.7382 17.0126 22.1024 17.7543 22.2499C18.4959 22.3974 19.2647 22.3217 19.9633 22.0323C20.6619 21.743 21.259 21.2529 21.6791 20.6242C22.0993 19.9954 22.3235 19.2562 22.3235 18.5C22.3235 17.998 22.2246 17.5008 22.0325 17.0369C21.8403 16.573 21.5587 16.1516 21.2037 15.7965C20.8486 15.4415 20.4272 15.1599 19.9633 14.9677C19.4994 14.7756 19.0023 14.6767 18.5002 14.6767ZM33.8089 10.8996C33.8008 9.70908 33.5816 8.52942 33.1614 7.41546C32.852 6.60032 32.3732 5.86006 31.7567 5.24353C31.1401 4.62701 30.3999 4.14823 29.5847 3.83879C28.4708 3.41863 27.2911 3.1994 26.1006 3.19129C24.1118 3.08337 23.526 3.08337 18.5002 3.08337C13.4743 3.08337 12.8885 3.08337 10.8997 3.19129C9.70921 3.1994 8.52954 3.41863 7.41558 3.83879C6.60044 4.14823 5.86018 4.62701 5.24366 5.24353C4.62713 5.86006 4.14835 6.60032 3.83891 7.41546C3.41875 8.52942 3.19952 9.70908 3.19141 10.8996C3.0835 12.8884 3.0835 13.4742 3.0835 18.5C3.0835 23.5259 3.0835 24.1117 3.19141 26.1005C3.20801 27.2952 3.42694 28.4785 3.83891 29.6C4.14698 30.4115 4.62536 31.1474 5.24183 31.7584C5.85571 32.3786 6.59755 32.8574 7.41558 33.1613C8.52954 33.5815 9.70921 33.8007 10.8997 33.8088C12.8885 33.9167 13.4743 33.9167 18.5002 33.9167C23.526 33.9167 24.1118 33.9167 26.1006 33.8088C27.2911 33.8007 28.4708 33.5815 29.5847 33.1613C30.4028 32.8574 31.1446 32.3786 31.7585 31.7584C32.375 31.1474 32.8533 30.4115 33.1614 29.6C33.5812 28.4806 33.8004 27.296 33.8089 26.1005C33.9168 24.1117 33.9168 23.5259 33.9168 18.5C33.9168 13.4742 33.9168 12.8884 33.8089 10.8996ZM29.8931 23.233C29.8436 24.1843 29.6406 25.1214 29.2918 26.008C28.9925 26.7475 28.5476 27.4193 27.9835 27.9834C27.4194 28.5475 26.7476 28.9924 26.0081 29.2917C25.1132 29.621 24.1708 29.8032 23.2177 29.8313C21.9997 29.8313 21.676 29.8313 18.5002 29.8313C15.3243 29.8313 15.0006 29.8313 13.7827 29.8313C12.8295 29.8032 11.8872 29.621 10.9922 29.2917C10.2277 29.0076 9.53734 28.5544 8.97266 27.9659C8.41407 27.4128 7.98267 26.7447 7.7085 26.008C7.3779 25.114 7.20068 24.1706 7.18433 23.2175C7.18433 21.9996 7.18433 21.6759 7.18433 18.5C7.18433 15.3242 7.18433 15.0005 7.18433 13.7825C7.20068 12.8295 7.3779 11.8861 7.7085 10.9921C7.9926 10.2276 8.44584 9.53722 9.03433 8.97254C9.58984 8.41696 10.2573 7.98602 10.9922 7.70837C11.8872 7.37908 12.8295 7.19686 13.7827 7.16879C15.0006 7.16879 15.3243 7.16879 18.5002 7.16879C21.676 7.16879 21.9997 7.16879 23.2177 7.16879C24.1708 7.19686 25.1132 7.37908 26.0081 7.70837C26.7726 7.99247 27.463 8.44571 28.0277 9.03421C28.5863 9.58728 29.0177 10.2554 29.2918 10.9921C29.6211 11.887 29.8033 12.8294 29.8314 13.7825C29.8314 15.0005 29.8314 15.3242 29.8314 18.5C29.8314 21.6759 29.9393 21.9996 29.8931 23.2175V23.233ZM27.4264 11.763C27.2429 11.265 26.9535 10.8127 26.5782 10.4375C26.2029 10.0622 25.7506 9.77276 25.2527 9.58921C24.5689 9.35219 23.8487 9.23739 23.1252 9.25004C21.9227 9.25004 21.5835 9.25004 18.5002 9.25004C15.4168 9.25004 15.0777 9.25004 13.8752 9.25004C13.1479 9.25715 12.4276 9.39285 11.7477 9.65087C11.2573 9.82609 10.8099 10.1037 10.4351 10.4652C10.0603 10.8267 9.76672 11.2638 9.57391 11.7475C9.35003 12.4341 9.24065 13.1529 9.25016 13.875C9.25016 15.0775 9.25016 15.4167 9.25016 18.5C9.25016 21.5834 9.25016 21.9225 9.25016 23.125C9.26545 23.8515 9.40089 24.5704 9.651 25.2525C9.83455 25.7505 10.124 26.2028 10.4992 26.578C10.8745 26.9533 11.3268 27.2427 11.8247 27.4263C12.4825 27.6682 13.1747 27.8035 13.8752 27.8271C15.0777 27.8271 15.4168 27.8271 18.5002 27.8271C21.5835 27.8271 21.9227 27.8271 23.1252 27.8271C23.8524 27.82 24.5727 27.6843 25.2527 27.4263C25.7506 27.2427 26.2029 26.9533 26.5782 26.578C26.9535 26.2028 27.2429 25.7505 27.4264 25.2525C27.6844 24.5726 27.8201 23.8523 27.8272 23.125C27.8272 21.9225 27.8272 21.5834 27.8272 18.5C27.8272 15.4167 27.8272 15.0775 27.8272 13.875C27.8277 13.1471 27.6917 12.4254 27.4264 11.7475V11.763ZM18.5002 24.3892C17.7275 24.3892 16.9625 24.2368 16.2488 23.9406C15.5352 23.6445 14.887 23.2104 14.3413 22.6634C13.7957 22.1163 13.3634 21.467 13.0691 20.7526C12.7748 20.0381 12.6244 19.2727 12.6264 18.5C12.6264 17.3346 12.9722 16.1954 13.62 15.2266C14.2678 14.2578 15.1885 13.503 16.2655 13.0577C17.3425 12.6124 18.5274 12.4967 19.6702 12.7252C20.813 12.9537 21.8623 13.5161 22.6853 14.3413C23.5083 15.1664 24.068 16.2172 24.2935 17.3606C24.519 18.504 24.4001 19.6886 23.952 20.7644C23.5039 21.8403 22.7467 22.759 21.7762 23.4042C20.8057 24.0495 19.6656 24.3923 18.5002 24.3892ZM24.6668 13.7671C24.326 13.7311 24.0106 13.5701 23.7814 13.3154C23.5522 13.0606 23.4254 12.73 23.4254 12.3873C23.4254 12.0446 23.5522 11.7141 23.7814 11.4593C24.0106 11.2045 24.326 11.0436 24.6668 11.0075C25.0076 11.0436 25.323 11.2045 25.5522 11.4593C25.7815 11.7141 25.9083 12.0446 25.9083 12.3873C25.9083 12.73 25.7815 13.0606 25.5522 13.3154C25.323 13.5701 25.0076 13.7311 24.6668 13.7671Z" fill="black"/>
</svg>
