<svg width="51" height="51" viewBox="0 0 51 51" fill="none" xmlns="http://www.w3.org/2000/svg">
<path d="M42.8401 9.79622C40.584 7.53948 37.5929 6.16741 34.4107 5.92953C31.2285 5.69165 28.0667 6.60375 25.5001 8.49997C22.7964 6.48895 19.4311 5.57706 16.0819 5.94793C12.7328 6.31879 9.64853 7.94487 7.45029 10.4987C5.25205 13.0526 4.10309 16.3445 4.2348 19.7115C4.3665 23.0786 5.76909 26.2706 8.1601 28.645L23.9913 44.4762C24.1889 44.6754 24.4239 44.8335 24.6829 44.9414C24.9418 45.0492 25.2196 45.1048 25.5001 45.1048C25.7806 45.1048 26.0584 45.0492 26.3173 44.9414C26.5763 44.8335 26.8113 44.6754 27.0088 44.4762L42.8401 28.645C44.0782 27.4076 45.0604 25.9384 45.7306 24.3214C46.4007 22.7043 46.7456 20.971 46.7456 19.2206C46.7456 17.4702 46.4007 15.7369 45.7306 14.1198C45.0604 12.5027 44.0782 11.0336 42.8401 9.79622ZM39.8438 25.6487L25.5001 39.9712L11.1563 25.6487C9.89234 24.3795 9.03129 22.7652 8.68121 21.0084C8.33113 19.2517 8.5076 17.4307 9.18849 15.7738C9.86939 14.117 11.0244 12.6981 12.5086 11.6952C13.9928 10.6922 15.7401 10.1499 17.5313 10.1362C19.9243 10.1421 22.2172 11.0974 23.9063 12.7925C24.1039 12.9916 24.3389 13.1497 24.5979 13.2576C24.8568 13.3655 25.1346 13.421 25.4151 13.421C25.6956 13.421 25.9734 13.3655 26.2323 13.2576C26.4913 13.1497 26.7263 12.9916 26.9238 12.7925C28.6628 11.2856 30.9093 10.4957 33.2086 10.5825C35.508 10.6694 37.6885 11.6266 39.3087 13.2604C40.929 14.8942 41.8681 17.0825 41.9359 19.3825C42.0037 21.6825 41.1951 23.9223 39.6738 25.6487H39.8438Z" fill="#979797"/>
</svg>
