<svg width="19" height="11" viewBox="0 0 19 11" fill="none" xmlns="http://www.w3.org/2000/svg">
<path d="M17.625 3.2088L10.6538 10.0988C10.5027 10.2511 10.323 10.372 10.1249 10.4545C9.92692 10.537 9.71453 10.5795 9.50001 10.5795C9.28549 10.5795 9.07309 10.537 8.87507 10.4545C8.67705 10.372 8.49732 10.2511 8.34626 10.0988L1.45626 3.2088C1.30395 3.05773 1.18306 2.87801 1.10056 2.67998C1.01806 2.48196 0.975586 2.26957 0.975586 2.05505C0.975586 1.84053 1.01806 1.62813 1.10056 1.43011C1.18306 1.23209 1.30395 1.05236 1.45626 0.901297C1.76072 0.598639 2.17258 0.428759 2.60188 0.428759C3.03118 0.428759 3.44304 0.598639 3.74751 0.901297L9.50001 6.6538L15.2525 0.901297C15.5552 0.601088 15.9637 0.431842 16.39 0.430047C16.6039 0.42881 16.8159 0.4698 17.0139 0.550668C17.2118 0.631535 17.3919 0.75069 17.5438 0.901297C17.7015 1.04693 17.8288 1.22237 17.9184 1.41749C18.0079 1.61262 18.0579 1.82355 18.0655 2.03811C18.073 2.25266 18.038 2.46659 17.9624 2.66753C17.8868 2.86847 17.7721 3.05243 17.625 3.2088Z" fill="#353535"/>
</svg>
