<svg width="37" height="37" viewBox="0 0 37 37" fill="none" xmlns="http://www.w3.org/2000/svg">
<path d="M23.2376 3.08337H13.7788C5.13902 3.08337 3.0835 5.13889 3.0835 13.7626V23.2214C3.0835 31.8611 5.12303 33.9167 13.7627 33.9167H23.2215C31.8613 33.9167 33.9168 31.8772 33.9168 23.2374V13.7787C33.9168 5.13889 31.8773 3.08337 23.2376 3.08337ZM27.975 25.0842H25.7267C24.8756 25.0842 24.6187 24.3936 23.0931 22.8681C21.7601 21.5834 21.1981 21.4227 20.8608 21.4227C20.3952 21.4227 20.2666 21.5512 20.2666 22.1936V24.217C20.2666 24.7631 20.09 25.0842 18.6608 25.0842C17.2739 24.991 15.929 24.5697 14.7368 23.8549C13.5446 23.1402 12.5392 22.1525 11.8035 20.9731C10.057 18.7992 8.84179 16.2478 8.25454 13.5217C8.25454 13.1845 8.38298 12.8793 9.02537 12.8793H11.2736C11.8517 12.8793 12.0605 13.1363 12.2853 13.7305C13.3773 16.9423 15.2402 19.7366 15.995 19.7366C16.284 19.7366 16.4125 19.6081 16.4125 18.8855V15.5772C16.3161 14.0677 15.5132 13.9392 15.5132 13.3933C15.5238 13.2492 15.5901 13.115 15.698 13.019C15.8059 12.9231 15.947 12.873 16.0913 12.8793H19.6243C20.1061 12.8793 20.2666 13.1202 20.2666 13.6983V18.1628C20.2666 18.6446 20.4754 18.8051 20.62 18.8051C20.909 18.8051 21.1338 18.6446 21.6638 18.1146C22.8026 16.7259 23.7331 15.1787 24.4259 13.5217C24.4967 13.3223 24.6307 13.1516 24.8076 13.0356C24.9845 12.9196 25.1945 12.8647 25.4056 12.8793H27.6538C28.3283 12.8793 28.4728 13.2166 28.3283 13.6983C27.5102 15.5303 26.4981 17.2693 25.3092 18.8855C25.0683 19.2548 24.972 19.4475 25.3092 19.8811C25.534 20.2183 26.3209 20.8767 26.8509 21.503C27.6217 22.2719 28.2618 23.1615 28.7458 24.1368C28.9385 24.7631 28.6173 25.0842 27.975 25.0842Z" fill="black"/>
</svg>
